<?xml version="1.0" encoding="UTF-8" standalone="no"?><!DOCTYPE svg PUBLIC "-//W3C//DTD SVG 1.1//EN" "http://www.w3.org/Graphics/SVG/1.1/DTD/svg11.dtd"><svg width="100%" height="100%" viewBox="0 0 2492 638" version="1.1" xmlns="http://www.w3.org/2000/svg" xmlns:xlink="http://www.w3.org/1999/xlink" xml:space="preserve" xmlns:serif="http://www.serif.com/" style="fill-rule:evenodd;clip-rule:evenodd;stroke-linejoin:round;stroke-miterlimit:2;"><g><g><rect x="3.121" y="2.57" width="2485.43" height="456.059" style="fill:#424242;"/><path d="M298.217,390.576l82.598,0l0,-113.089l112.021,0l0,113.089l82.817,0l0,-298.037l-82.817,0l0,116.377l-112.021,0l0,-116.377l-82.598,0l0,298.037Z" style="fill:#fafafa;fill-rule:nonzero;"/><path d="M614.253,276.405c0,66.854 51.706,121.842 127.76,121.842c77.808,0 129.513,-54.549 129.513,-121.842c0,-66.854 -51.705,-122.061 -129.075,-122.061c-76.711,0 -128.198,55.426 -128.198,122.061Zm80.407,-0.219c0,-33.54 21.045,-54.586 48.23,-54.586c26.965,0 48.23,21.265 48.23,54.586c0,33.979 -20.827,55.024 -48.011,55.024c-26.746,0 -48.449,-21.264 -48.449,-55.024Z" style="fill:#fafafa;fill-rule:nonzero;"/><path d="M1294.08,268.063c0,-69.466 -33.74,-113.719 -100.358,-113.719c-34.861,0 -61.163,12.268 -79.786,26.508c-16.651,-16.649 -40.094,-26.508 -68.807,-26.508c-26.091,0 -48.893,9.64 -65.766,20.374l-3.943,-12.706l-64.194,0l0,228.564l80.187,0l0,-117.472c0,-32.217 14.909,-51.504 40.999,-51.504c20.829,0 29.6,15.561 29.6,48.217l0,120.759l80.844,0l0,-120.759c0.658,-29.588 15.567,-48.217 41,-48.217c20.609,0 29.599,15.561 29.599,48.217l0,120.759l80.625,0l0,-122.513Z" style="fill:#fafafa;fill-rule:nonzero;"/><path d="M1460.45,218.532c20.601,0 30.025,8.775 30.025,15.576c0,7.459 -9.643,11.628 -21.697,11.628l-53.476,0c9.424,-16.893 26.738,-27.204 45.148,-27.204Zm20.82,90.296c67.044,0 85.666,-33.737 85.666,-72.087c0,-50.413 -44.036,-82.616 -108.678,-82.616c-76.27,0 -127.773,55.644 -127.773,122.28c0,66.416 51.942,122.281 127.554,122.281c43.391,0 75.158,-20.155 89.837,-33.519l-43.379,-46.465c-11.174,7.46 -18.624,13.604 -45.582,13.604c-17.094,0 -32.874,-8.558 -42.298,-23.478l64.653,0Z" style="fill:#fafafa;fill-rule:nonzero;"/><path d="M1600.28,390.576l199.193,0l0,-68.79l-116.595,0l0,-229.247l-82.598,0l0,298.037Z" style="fill:#fafafa;fill-rule:nonzero;"/><path d="M1835.88,390.576l80.848,0l0,-228.589l-80.848,0l0,228.589Zm-5.698,-287.969c0,21.909 18.625,40.094 46.461,40.094c28.695,0 47.095,-17.747 47.095,-40.094c0,-21.909 -18.4,-40.093 -46.876,-40.093c-28.274,0 -46.68,18.184 -46.68,40.093Z" style="fill:#fafafa;fill-rule:nonzero;"/><path d="M2147.31,276.186c0,33.979 -22.58,55.243 -50.203,55.243c-28.061,0 -49.981,-21.045 -49.981,-55.243c0,-33.321 22.358,-54.586 50.419,-54.586c28.281,0 49.765,21.046 49.765,54.586Zm80.625,0.219c0,-66.635 -44.475,-122.28 -121.182,-122.28c-23.019,0 -41.434,5.915 -55.903,14.459l0,-86.784l-80.187,0l0,308.78l68.137,0l2.629,-12.269c15.778,10.954 37.482,20.155 63.789,20.155c76.27,0 122.717,-55.206 122.717,-122.061Z" style="fill:#fafafa;fill-rule:nonzero;"/></g><path d="M331.559,597.674l25.001,-32.72l0,55.796l5.655,0l0,-65.247l-4.936,0l-26.632,34.926l-26.727,-34.926l-4.793,0l0,65.247l5.656,0l0,-55.844l24.857,32.768l1.919,0Z" style="fill:#424242;fill-rule:nonzero;"/><path d="M418.727,620.75l5.562,0l0,-48.604l-5.562,0l0,48.604Zm-1.439,-63.667c0,2.158 1.775,3.931 4.221,3.931c2.492,0 4.313,-1.726 4.313,-3.931c0,-2.109 -1.821,-3.931 -4.265,-3.931c-2.494,0 -4.269,1.822 -4.269,3.931Z" style="fill:#424242;fill-rule:nonzero;"/><path d="M528.629,594.265c0,-15.786 -7.431,-23.409 -22.068,-23.409c-8.11,0 -15.308,4.266 -19.003,9.734l-0.527,-8.44l-4.697,0l0,48.6l5.512,0l0,-26.293c0,-11.18 8.254,-18.665 18.043,-18.665c11.086,0 17.132,5.71 17.132,18.569l0,26.389l5.608,0l0,-26.485Z" style="fill:#424242;fill-rule:nonzero;"/><path d="M583.077,620.75l5.562,0l0,-48.604l-5.562,0l0,48.604Zm-1.439,-63.667c0,2.158 1.775,3.931 4.221,3.931c2.492,0 4.313,-1.726 4.313,-3.931c0,-2.109 -1.821,-3.931 -4.265,-3.931c-2.494,0 -4.269,1.822 -4.269,3.931Z" style="fill:#424242;fill-rule:nonzero;"/><path d="M724.694,593.737c0,-15.258 -7.431,-22.833 -18.901,-22.833c-9.358,0 -16.124,4.601 -19.433,10.502c-3.019,-6.86 -9.017,-10.502 -16.696,-10.502c-8.11,0 -14.301,3.69 -17.756,8.823l-0.527,-7.577l-4.697,0l0,48.6l5.512,0l0,-27.253c0,-11.179 7.198,-17.705 16.748,-17.705c8.447,0 13.965,5.566 13.965,18.233l0,26.725l5.56,0l0,-27.301c0,-11.083 7.199,-17.657 16.749,-17.657c8.398,0 13.965,5.566 13.965,18.233l0,26.725l5.511,0l0,-27.013Z" style="fill:#424242;fill-rule:nonzero;"/><path d="M794.349,617.206c-7.054,0 -12.477,-2.784 -12.477,-10.271c0,-7.488 10.125,-9.024 18.188,-9.024c3.647,0 10.941,0.336 14.876,0.384l0,7.632c-2.447,7.631 -13.341,11.279 -20.587,11.279Zm26.099,-30.614c0,-7.776 -6.663,-15.736 -22.26,-15.736c-11.133,0 -21.205,6.04 -21.349,14.68l5.657,0c0,-5.232 7.294,-9.935 15.74,-9.935c11.613,0 16.7,5.711 16.7,11.615l0,6.862c-4.031,-0.047 -11.517,-0.383 -15.452,-0.383c-11.422,0 -23.22,2.587 -23.22,13.144c0,10.798 7.575,14.919 16.933,14.919c8.206,0 17.276,-3.45 22.075,-9.256l0.479,8.249l4.697,0l0,-34.159Z" style="fill:#424242;fill-rule:nonzero;"/><path d="M875.088,553.2l0,53.978c0,9.642 2.013,13.572 12.709,13.572l2.207,0l0,-4.984l-1.967,0c-6.285,0 -7.437,-2.159 -7.437,-8.588l0,-53.978l-5.512,0Z" style="fill:#424242;fill-rule:nonzero;"/><path d="M1001.34,620.75l39.146,0l0,-5.032l-33.49,0l0,-60.215l-5.656,0l0,65.247Z" style="fill:#424242;fill-rule:nonzero;"/><path d="M1090.28,620.75l5.561,0l0,-48.604l-5.561,0l0,48.604Zm-1.44,-63.667c0,2.158 1.775,3.931 4.222,3.931c2.492,0 4.313,-1.726 4.313,-3.931c0,-2.109 -1.821,-3.931 -4.265,-3.931c-2.495,0 -4.27,1.822 -4.27,3.931Z" style="fill:#424242;fill-rule:nonzero;"/><path d="M1200.81,596.427c0,11.805 -9.261,20.683 -20.778,20.683c-11.517,0 -20.826,-8.83 -20.826,-20.683c0,-11.709 9.357,-20.635 20.826,-20.635c11.565,0 20.778,8.926 20.778,20.635Zm5.608,0c0,-14.253 -11.126,-25.571 -25.906,-25.571c-9.31,0 -16.892,4.649 -21.115,11.175l0,-28.831l-5.512,0l0,67.552l4.889,0l0.432,-9.929c4.078,6.335 11.9,11.223 21.258,11.223c14.732,0 25.954,-11.271 25.954,-25.619Z" style="fill:#424242;fill-rule:nonzero;"/><path d="M1288.12,572.152l-5.133,0c-8.685,0 -15.114,3.93 -18.425,9.35l-0.575,-9.35l-4.697,0l0,48.598l5.512,0l0,-24.566c0,-12.475 7.629,-19 18.376,-19l4.942,0l0,-5.032Z" style="fill:#424242;fill-rule:nonzero;"/><path d="M1352.97,617.206c-7.054,0 -12.477,-2.784 -12.477,-10.271c0,-7.488 10.125,-9.024 18.188,-9.024c3.647,0 10.941,0.336 14.876,0.384l0,7.632c-2.447,7.631 -13.341,11.279 -20.587,11.279Zm26.099,-30.614c0,-7.776 -6.663,-15.736 -22.26,-15.736c-11.133,0 -21.205,6.04 -21.349,14.68l5.657,0c0,-5.232 7.294,-9.935 15.74,-9.935c11.613,0 16.7,5.711 16.7,11.615l0,6.862c-4.031,-0.047 -11.517,-0.383 -15.452,-0.383c-11.422,0 -23.22,2.587 -23.22,13.144c0,10.798 7.575,14.919 16.933,14.919c8.206,0 17.276,-3.45 22.075,-9.256l0.479,8.249l4.697,0l0,-34.159Z" style="fill:#424242;fill-rule:nonzero;"/><path d="M1462.35,572.152l-5.134,0c-8.685,0 -15.114,3.93 -18.424,9.35l-0.575,-9.35l-4.697,0l0,48.598l5.511,0l0,-24.566c0,-12.475 7.629,-19 18.377,-19l4.942,0l0,-5.032Z" style="fill:#424242;fill-rule:nonzero;"/><path d="M1547.79,572.152l-18.185,41.791l-0.144,-1.056l-17.897,-40.735l-6.141,0l21.159,47.98c-3.55,8.253 -5.23,12.475 -10.603,12.475l-8.733,0l0.048,4.744l8.157,0c9.596,0 11.899,-5.032 17.513,-18.13l20.775,-47.069l-5.949,0Z" style="fill:#424242;fill-rule:nonzero;"/><path d="M1657.88,615.478c5.802,3.836 14.773,6.568 24.131,6.568c16.988,0 26.53,-7.24 26.53,-19.092c0,-14.06 -12.901,-16.987 -22.931,-18.475c-11.661,-1.247 -19.723,-3.503 -19.723,-11.852c0,-6.526 4.079,-13.436 17.804,-13.436c8.973,0 17.563,4.031 21.495,6.334l1.918,-4.846c-5.466,-2.782 -13.432,-6.568 -23.03,-6.568c-17.851,0 -23.795,9.399 -23.795,18.948c0,12.668 13.286,14.731 23.076,15.931c10.749,1.536 19.483,4.655 19.483,13.82c0,9.213 -7.246,14.156 -20.587,14.156c-9.742,0 -17.754,-3.887 -22.068,-6.19l-2.303,4.702Z" style="fill:#424242;fill-rule:nonzero;"/><path d="M1797.73,572.152l-18.185,41.791l-0.144,-1.056l-17.896,-40.735l-6.142,0l21.159,47.98c-3.55,8.253 -5.229,12.475 -10.603,12.475l-8.733,0l0.048,4.744l8.157,0c9.596,0 11.899,-5.032 17.513,-18.13l20.775,-47.069l-5.949,0Z" style="fill:#424242;fill-rule:nonzero;"/><path d="M1847.52,617.158c5.321,3.498 11.799,4.888 18.469,4.888c14.014,0 22.069,-5.704 22.069,-14.918c0,-10.749 -11.079,-12.572 -19.093,-13.532c-10.126,-0.912 -15.501,-3.311 -15.501,-8.446c0,-4.655 3.647,-9.549 15.069,-9.549c6.287,0 12.093,2.543 15.93,4.655l1.773,-4.415c-4.458,-2.541 -10.889,-4.985 -17.943,-4.985c-15.357,0 -20.389,7.096 -20.389,14.342c0,9.934 10.359,11.805 18.469,12.765c9.598,1.247 15.789,3.167 15.837,9.453c0,5.951 -5.663,9.838 -16.653,9.838c-5.231,0 -11.037,-1.392 -16.215,-4.655l-1.822,4.559Z" style="fill:#424242;fill-rule:nonzero;"/><path d="M1940.78,571.72l-8.829,0.815l0,4.553l8.925,0l0,25.529c0,14.205 7.191,19.045 16.787,19.045l9.116,0l0.048,-4.744l-8.732,0c-6.046,0 -11.707,-2.976 -11.707,-14.301l0,-25.529l18.376,0l0,-4.936l-18.376,0l0,-14.538l-4.314,0.048l-1.294,14.058Z" style="fill:#424242;fill-rule:nonzero;"/><path d="M2041.71,575.648c10.748,0 16.026,5.376 16.026,10.176c0,4.847 -3.455,8.351 -10.892,8.495l-25.621,0c1.103,-10.607 9.884,-18.671 20.487,-18.671Zm5.758,23.367c10.891,0 15.588,-5.752 15.588,-13.095c0,-7.536 -7.143,-15.064 -21.49,-15.064c-14.538,0 -25.861,11.56 -25.861,25.667c0,14.011 11.323,25.571 25.861,25.571c8.205,0 15.162,-3.738 19.525,-8.68l-3.355,-3.312c-3.935,4.32 -9.164,7.056 -16.122,7.056c-10.459,0 -19.144,-7.776 -20.343,-18.143l26.197,0Z" style="fill:#424242;fill-rule:nonzero;"/><path d="M2192.54,593.737c0,-15.258 -7.432,-22.833 -18.901,-22.833c-9.358,0 -16.125,4.601 -19.434,10.502c-3.019,-6.86 -9.017,-10.502 -16.696,-10.502c-8.11,0 -14.301,3.69 -17.755,8.823l-0.528,-7.577l-4.697,0l0,48.6l5.512,0l0,-27.253c0,-11.179 7.199,-17.705 16.749,-17.705c8.446,0 13.965,5.566 13.965,18.233l0,26.725l5.559,0l0,-27.301c0,-11.083 7.199,-17.657 16.749,-17.657c8.398,0 13.965,5.566 13.965,18.233l0,26.725l5.512,0l0,-27.013Z" style="fill:#424242;fill-rule:nonzero;"/></g></svg>